<?xml version="1.0" encoding="UTF-8"?> <svg id="Layer_1" data-name="Layer 1" xmlns="http://www.w3.org/2000/svg" viewBox="0 0 1920 1921.77"> <defs> <style> .cls-1 { fill: #fff; } </style> </defs> <path d="M960,0h0c530.19,0,960,429.81,960,960h0c0,530.19-429.81,960-960,960h0C429.81,1920,0,1490.19,0,960h0C0,429.81,429.81,0,960,0Z"/> <path class="cls-1" d="M1581.3,682.73c-164.78,50.28-271.47-31.58-433.11,29.21-35.63,13.42-144.17,81.31-165.37,81.11-11.22-.1-149.81-84.19-201.94-97.09-112.53-27.82-172.86,12.51-272.77,9.66-95.83-2.72-180.12-60.17-271.51-79.62-12,247.81,279.51,263.6,409.12,429.58,193.68,248.02,73.87,553.18-115.1,764.26,123.44,58.86,259.97,94.69,404.04,101.93,11.16-32.36,21.79-64.66,31.92-96.83,108.05-343.35,87.14-643.58,428.41-852.94,107.27-65.81,324.93-139.98,344.94-290.05,14.88-111.46-106.79-15.04-158.63.78Z"/> </svg>
