<?xml version="1.0" encoding="UTF-8"?> <svg id="Layer_1" data-name="Layer 1" xmlns="http://www.w3.org/2000/svg" viewBox="0 0 1920 1920"> <defs> <style> .cls-1 { fill: #fff; } </style> </defs> <rect x="0" y="0" width="1920" height="1920" rx="960" ry="960"/> <g id="IgbSBx"> <path class="cls-1" d="M1047.96,1265.48c37.56,29.48,62.41,56.82,88.85,96.49,18.93,28.39,60.79,84.06,43.02,115.67-21.91-3.01-39.65-15.22-61.64-19.64-32.06-6.44-64.7-3.92-98.05-11.97-75.58-18.23-114.48-73.85-137.68-144.19-19.78-.76-41.06,1.92-60.62.22-29.94-2.61-92.36-21.09-114.37-19.9-5.96.32-48.92,29.29-66.92,34.28-33.77,9.35-66.8,6.15-99.46,10.55-14.54,1.96-62.87,25.55-58.87-1.52,3.03-20.56,56.83-72.93,72.62-90.6-31.82-19.02-66.2-33-97.37-53.31-102.71-66.93-181.87-177.19-175.49-305.22,1.48-29.64,5.63-74.25,42.62-75.52,115.82,8.7,233.03-25.98,341.87,25.04,46.46,21.78,82.98,60.66,128.67,83.22,138.82,68.56,322.67,30.16,438.09-67.54,74.38-62.96,137.33-176.94,67.26-266.67-39.98-51.2-129.9-56.07-126.2-132.51,28.19,6,54.19,23.72,83.75,24.56,30.82.88,49.43-11.56,84.14-2.98,16.08,3.98,58.83,29.92,62.29,29.95,6.54.06,40.02-20.88,51.01-25.02,49.86-18.75,82.77,6.5,133.6-9.01,15.99-4.88,53.52-34.62,48.93-.24-6.17,46.29-73.31,69.17-106.4,89.47-105.27,64.58-98.82,157.19-132.15,263.1-57.24,181.88-167.65,377.77-351.5,453.29Z"/> </g> </svg>
