<?xml version="1.0" encoding="UTF-8"?>
<svg id="Layer_1" data-name="Layer 1" xmlns="http://www.w3.org/2000/svg" viewBox="0 0 575.2 571.55">
  <defs>
    <style>.cls-1{fill:#fff;opacity:.52}</style>
  </defs>
  <ellipse class="cls-1" cx="287.6" cy="285.77" rx="287.6" ry="285.77"/>
  <g>
    <path d="M156.59,319.8c-6.58,9.74-5.35,23.06,2.91,31.43,11.16,11.3,29.71,9.59,38.61-3.57,6.58-9.74,5.35-23.06-2.91-31.43-11.16-11.3-29.71-9.59-38.61,3.57Z"/>
    <path d="M287.6,0C128.76,0,0,128.76,0,287.6,0,322.35,6.16,355.67,17.46,386.51L275.12,76.28l-.89,1.08c10.37-12.48,19.42-12.8,34-.41,85.54,79.2,90.95,225.02,35.09,382.5-4.3,12.12-9.72,23.77-16.11,34.87-3.02,5.25-10.1,6.43-14.71,2.49l-22.45-19.17c-2.98-2.54-3.9-6.75-2.3-10.32,39.46-88.13,62.05-179.99,34.97-282.86-2.13-8.09-12.58-10.34-17.89-3.84-2.18,2.66-2.73,6.3-1.82,9.62,23.11,84.12,10.83,171.45-27.83,261.17-2.33,5.4-9.21,7.03-13.74,3.27l-12.14-10.09c-6.98-5.8-9.47-15.43-6.16-23.88,26.73-68.16,40.44-128.55,32.37-175.94-1.62-9.51-13.71-12.72-19.75-5.07-1.91,2.42-2.68,5.58-2.22,8.63,6.02,40.32-10.34,106.08-38.11,184.79-2.93,8.31-.36,17.57,6.42,23.19l83.55,69.39s0,0,0,0c16.08,13.17,24.89,28.77,28.02,45.83,137.06-21.94,241.79-140.71,241.79-283.95C575.2,128.76,446.43,0,287.6,0ZM305.46,74.42c.21.19.43.38.64.57l-.64-.57Z"/>
  </g>
</svg>
